M48
INCH,TZ
T1C0.016
T2C0.071
T3C0.118
T4C0.138
%
G90
G05
T1
X50500Y-56000
T2
X41917Y-46193
X41917Y-47846
X41917Y-49500
X41917Y-51154
X41917Y-52807
X44083Y-46193
X44083Y-47846
X44083Y-49500
X44083Y-51154
X44083Y-52807
X48417Y-46193
X48417Y-47846
X48417Y-49500
X48417Y-51154
X48417Y-52807
X50583Y-46193
X50583Y-47846
X50583Y-49500
X50583Y-51154
X50583Y-52807
X54917Y-46193
X54917Y-47846
X54917Y-49500
X54917Y-51154
X54917Y-52807
X57083Y-46193
X57083Y-47846
X57083Y-49500
X57083Y-51154
X57083Y-52807
T3
X42098Y-44343
X42098Y-54657
X48598Y-44343
X48598Y-54657
X55098Y-44343
X55098Y-54657
T4
X41339Y-41339
X41339Y-57087
X57087Y-41339
X57087Y-57087
T0
M30
